HIERARCHY
ROOT Hips
{
	OFFSET -3.958830 18.904000 13.208200
	CHANNELS 6 Xposition Yposition Zposition Zrotation Yrotation Xrotation 
	JOINT LHipJoint
	{
		OFFSET 0.000000 0.000000 0.000000
		CHANNELS 3 Zrotation Yrotation Xrotation
		JOINT LeftUpLeg
		{
			OFFSET 1.800000 -1.400000 0.085000
			CHANNELS 3 Zrotation Yrotation Xrotation
			JOINT LeftLeg
			{
				OFFSET 2.215000 -6.000000 0.000000
				CHANNELS 3 Zrotation Yrotation Xrotation
				JOINT LeftFoot
				{
					OFFSET 2.500000 -6.900000 0.000000
					CHANNELS 3 Zrotation Yrotation Xrotation
					JOINT LeftToeBase
					{
						OFFSET 0.200000 -0.500000 1.950000
						CHANNELS 3 Zrotation Yrotation Xrotation
						End Site
						{
							OFFSET 0.000000 0.000000 0.000000
						}
					}
				}
			}
		}
	}
	JOINT RHipJoint
	{
		OFFSET 0.000000 0.000000 0.000000
		CHANNELS 3 Zrotation Yrotation Xrotation
		JOINT RightUpLeg
		{
			OFFSET -1.800000 -1.400000 0.085000
			CHANNELS 3 Zrotation Yrotation Xrotation
			JOINT RightLeg
			{
				OFFSET -2.215000 -6.000000 0.000000
				CHANNELS 3 Zrotation Yrotation Xrotation
				JOINT RightFoot
				{
					OFFSET -2.500000 -6.900000 0.000000
					CHANNELS 3 Zrotation Yrotation Xrotation
					JOINT RightToeBase
					{
						OFFSET -0.200000 -0.500000 1.950000
						CHANNELS 3 Zrotation Yrotation Xrotation
						End Site
						{
							OFFSET 0.000000 0.000000 0.000000
						}
					}
				}
			}
		}
	}
	JOINT LowerBack
	{
		OFFSET 0.000000 0.000000 0.000000
		CHANNELS 3 Zrotation Yrotation Xrotation
		JOINT Spine
		{
			OFFSET -0.087000 1.940000 -0.288900
			CHANNELS 3 Zrotation Yrotation Xrotation
			JOINT Spine1
			{
				OFFSET 0.000000 1.950000 0.060000
				CHANNELS 3 Zrotation Yrotation Xrotation
				JOINT Neck
				{
					OFFSET 0.000000 0.000000 0.000000
					CHANNELS 3 Zrotation Yrotation Xrotation
					JOINT Neck1
					{
						OFFSET 0.000000 1.600000 0.340000
						CHANNELS 3 Zrotation Yrotation Xrotation
						JOINT Head
						{
							OFFSET 0.000000 1.667000 -0.240000
							CHANNELS 3 Zrotation Yrotation Xrotation
							End Site
							{
								OFFSET 0.000000 0.000000 0.000000
							}
						}
					}
				}
				JOINT LeftShoulder
				{
					OFFSET 0.000000 0.000000 0.000000
					CHANNELS 3 Zrotation Yrotation Xrotation
					JOINT LeftArm
					{
						OFFSET 2.700000 1.550000 -0.730000
						CHANNELS 3 Zrotation Yrotation Xrotation
						JOINT LeftForeArm
						{
							OFFSET 5.450000 0.000000 0.000000
							CHANNELS 3 Zrotation Yrotation Xrotation
							JOINT LeftHand
							{
								OFFSET 3.450000 0.000000 0.000000
								CHANNELS 3 Zrotation Yrotation Xrotation
								JOINT LeftHandIndex1
								{
									OFFSET 0.750000 0.000000 0.000000
									CHANNELS 3 Zrotation Yrotation Xrotation
									End Site
									{
										OFFSET 0.000000 0.000000 0.000000
									}
								}
							}
						}
					}
				}
				JOINT RightShoulder
				{
					OFFSET 0.000000 0.000000 0.000000
					CHANNELS 3 Zrotation Yrotation Xrotation
					JOINT RightArm
					{
						OFFSET -2.700000 1.550000 -0.730000
						CHANNELS 3 Zrotation Yrotation Xrotation
						JOINT RightForeArm
						{
							OFFSET -5.450000 0.000000 0.000000
							CHANNELS 3 Zrotation Yrotation Xrotation
							JOINT RightHand
							{
								OFFSET -3.450000 0.000000 0.000000
								CHANNELS 3 Zrotation Yrotation Xrotation
								JOINT RightHandIndex1
								{
									OFFSET -0.750000 0.000000 0.000000
									CHANNELS 3 Zrotation Yrotation Xrotation
									End Site
									{
										OFFSET 0.000000 0.000000 0.000000
									}
								}
							}
						}
					}
				}
			}
		}
	}
}
MOTION
Frames: 6
Frame Time: 0.016667
0.030640 15.763380 -1.020000 -1.768536 -11.152727 -1.005709 -15.479625 10.686983 5.573242 16.696762 -8.831675 -37.960570 -26.181606 27.157431 54.205712 1.463925 13.790979 -0.122954 0.758790 0.369440 0.857710 18.502619 -8.123287 3.703958 0.184148 12.167193 -38.385846 -8.152489 -7.599618 72.752265 -2.009418 -10.615682 0.817231 0.194220 -0.128870 0.361810 -3.602332 -2.568985 -9.550138 13.683051 -5.554517 36.155754 -5.196473 -0.202031 8.209769 2.848044 -5.398353 -13.459991 -14.312197 10.313770 42.529596 -11.268490 9.519560 -15.673750 -1.569792 -24.638082 5.135706 -5.497298 -17.210587 -2.970495 -26.183402 -38.508321 8.358743 -3.475940 3.106627 0.670180 0.025790 0.240880 0.062720 -4.058013 29.140997 7.035491 16.984498 20.066572 -7.708724 50.779922 57.591484 22.036215 1.820455 -1.744458 -0.026590 0.073600 -0.187430 -0.406140 
0.041190 15.787730 -1.012040 -1.745522 -12.654218 -0.739845 -15.490676 10.616010 5.644260 17.700809 -8.180720 -38.236793 -27.622155 27.953292 53.230194 1.555742 13.839149 -0.108283 0.699200 0.315370 0.790530 18.507471 -8.053992 3.722288 -0.063729 12.435104 -38.670013 -8.141803 -7.440994 72.304768 -1.959690 -10.542541 0.864407 0.142480 -0.099660 0.356240 -3.625242 -2.542654 -9.580888 14.042491 -5.686561 36.350490 -5.663278 -0.134256 7.528579 3.132316 -5.585473 -13.697428 -14.568524 10.849540 41.967554 -11.423080 10.111440 -14.164380 -1.939165 -23.395346 5.469441 -4.321636 -14.420937 -3.270541 -31.433811 -40.577014 10.698609 -3.478850 3.201590 0.630700 0.044750 0.209160 0.069130 -4.207107 28.155074 7.305354 15.809640 18.727142 -7.621678 58.322306 61.004863 27.526168 1.891215 -1.788300 -0.017230 0.048080 -0.173450 -0.380440 
0.051790 15.828620 -0.982090 -2.048706 -14.797824 0.378818 -15.510106 10.430899 5.770361 19.775728 -6.919362 -38.917761 -29.992057 29.197864 51.416832 1.705733 13.848238 -0.073434 0.663280 0.282490 0.736000 18.533191 -7.876401 3.801930 -0.509247 13.015237 -39.842578 -7.707103 -7.615076 71.834828 -1.924117 -10.479479 0.902915 0.077710 -0.096180 0.368720 -3.704237 -2.477500 -9.654283 15.274514 -6.058866 35.430602 -6.231221 -0.206826 6.667270 3.451033 -5.925083 -13.942664 -15.263345 11.740030 41.592426 -11.642280 10.998860 -12.230430 -2.100515 -20.850604 5.852351 -3.761910 -10.902609 -2.958965 -39.929557 -42.727142 14.571801 -3.469568 3.360346 0.576270 0.045300 0.196810 0.091690 -4.628871 25.895315 7.679082 15.160836 17.152351 -6.672195 71.192586 66.189320 37.706172 2.124377 -1.749015 0.033560 -0.020880 -0.193060 -0.337850 
0.061010 15.882750 -0.930950 -2.237222 -17.135223 1.988539 -15.529297 10.219626 5.878739 21.758522 -5.544085 -39.729423 -31.636901 30.251653 49.867100 1.803852 13.896619 -0.040846 0.520790 0.111920 0.649420 18.562237 -7.685573 3.926167 -2.152594 13.583812 -41.793825 -5.756901 -9.057812 71.317617 -1.858524 -10.504348 0.916119 -0.047720 -0.034280 0.371120 -3.810696 -2.354122 -9.748142 16.731654 -6.386829 33.442036 -7.378852 -0.291768 6.138447 4.162430 -5.861213 -14.426387 -15.076541 12.239231 41.824141 -12.976010 12.359970 -9.580870 -2.242732 -18.475875 6.556650 -3.850473 -6.348906 -2.451349 -49.427531 -44.328154 18.979241 -3.536213 3.418620 0.541830 0.082140 0.148810 0.068900 -5.861294 23.527454 8.111316 16.541006 15.658322 -5.913718 87.038201 70.191278 50.211251 2.578836 -1.222776 0.020130 -0.042570 -0.134950 -0.318690 
0.059920 15.961920 -0.885070 -2.268320 -19.236210 2.674907 -15.526277 10.100725 5.893929 23.590700 -4.246518 -39.392723 -31.983744 30.887813 49.096089 1.853984 13.900541 -0.011147 0.468650 0.063730 0.584820 18.586412 -7.640615 3.954474 -5.151788 13.506049 -42.758649 -1.378036 -12.017027 69.426469 -1.800017 -10.568943 0.908341 -0.080650 0.018100 0.369500 -3.936379 -2.141549 -9.747008 17.783099 -6.621283 32.088307 -8.211226 -0.492631 6.226035 4.399639 -6.049011 -14.324119 -14.781462 12.896572 40.306725 -13.031340 13.308690 -7.330450 -2.424861 -16.493486 7.214769 -4.212221 -2.269712 -2.021644 -58.140015 -43.909813 22.099852 -3.583780 3.511859 0.485380 0.124290 0.101540 0.088030 -6.146422 21.575002 7.522171 17.288611 13.867787 -7.055306 102.667503 69.741212 62.981327 2.818625 -0.717045 0.018850 -0.062920 -0.128280 -0.291470 
0.061080 16.030140 -0.826960 -1.838271 -21.050282 2.923280 -15.516167 9.993244 5.806342 24.856473 -3.205934 -38.414161 -31.576603 31.563198 49.161463 1.915093 13.980558 -0.002943 0.446990 0.034820 0.555460 18.611505 -7.582082 4.053490 -9.555798 13.135493 -44.115551 4.238034 -15.998071 67.943257 -1.837157 -11.016159 0.770130 -0.093460 0.059730 0.384040 -4.075041 -1.921623 -9.744213 18.460625 -6.712096 30.391866 -8.766587 -0.886524 7.070750 4.443551 -6.113932 -14.117458 -14.117483 13.524802 38.846590 -12.904500 14.090400 -4.959410 -1.732844 -14.313215 7.849236 -6.383408 1.337979 -1.869406 -65.555496 -42.466495 23.735441 -3.623239 3.611823 0.425090 0.168020 0.058380 0.107140 -6.946159 19.286214 6.793499 19.744635 12.287212 -8.800960 116.422923 68.092507 77.120910 2.578000 -0.741458 0.024830 -0.097690 -0.136550 -0.272650 
